# xmcd
#
# Track frame offsets:
#	150
#	24698
#	44190
#	60950
#	78686
#	101018
#	117332
#	134733
#	150880
#	175289
#	193345
#	215080
#
# Disc length: 3379 seconds
#
# Revision: 0
# Processed by: cddbd v1.5.1PL0 Copyright (c) Steve Scherf et al.
# Submitted via: dBpowerAMP V4.0
#
DISCID=b30d310c
DTITLE=Keith Urban - Golden Roads
DYEAR=1900
DGENRE=Country
TTITLE0=Somebody Like You
TTITLE1=Who Wouldn't Want To Be Me
TTITLE2=Whenever I Run
TTITLE3=What About Me
TTITLE4=You'll Think of Me
TTITLE5=Jeans On
TTITLE6=You Look Good In My Shirt
TTITLE7=You're Not Alone Tonight
TTITLE8=You Won
TTITLE9=Song For Dad
TTITLE10=Rainin' On Sunday
TTITLE11=You're Not My God
EXTD=
EXTT0=
EXTT1=
EXTT2=
EXTT3=
EXTT4=
EXTT5=
EXTT6=
EXTT7=
EXTT8=
EXTT9=
EXTT10=
EXTT11=
PLAYORDER=
